<svg xmlns="http://www.w3.org/2000/svg" xmlns:svg="http://www.w3.org/2000/svg" id="svg20" width="1144" height="1144" fill-rule="evenodd" stroke-linejoin="round" stroke-miterlimit="1.414" clip-rule="evenodd" version="1.1" viewBox="0 0 1144 1144" xml:space="preserve"><metadata id="metadata24"/><defs id="defs16"><linearGradient id="a" x1="26.57" x2="127.679" y1="128.408" y2="0" gradientTransform="matrix(8.96,0,0,8.96,-7.8e-5,8e-5)" gradientUnits="userSpaceOnUse"><stop id="stop11" offset="0" stop-color="#0082c9"/><stop id="stop13" offset="1" stop-color="#1cafff"/></linearGradient></defs><rect id="rect18" width="1144" height="1144" x="0" y="0" fill="url(#a)" fill-rule="evenodd" style="fill:url(#a)"/><path id="path2" d="m 571.959,247 c -178.258,0.003 -324.942,146.69 -324.942,324.951 0,0.003 0,0.006 0,0.009 0,178.262 146.684,324.949 324.942,324.952 59.474,-0.121 117.789,-16.568 168.562,-47.54 39.937,15.87 129.393,62.958 150.684,42.616 C 913.45,870.741 865.085,770.743 853.49,733.584 881.82,684.426 896.787,628.695 896.898,571.958 896.895,393.7 750.215,247.016 571.96,247.011 Z m 0.038,123.543 c 110.532,0 201.486,90.957 201.486,201.492 -0.007,110.53 -90.959,201.477 -201.487,201.477 -110.527,0 -201.479,-90.947 -201.487,-201.477 0,0 0,0 0,0 0,-110.535 90.955,-201.492 201.487,-201.492 z" style="clip-rule:evenodd;fill:#fff;fill-rule:nonzero;stroke-linejoin:round;stroke-miterlimit:1.41421"/></svg>