<svg xmlns="http://www.w3.org/2000/svg" width="321" height="371" preserveAspectRatio="none" viewbox="0 0 321 371"><rect width="100%" height="100%" x="0" y="0" fill="#9DA12D"/><polyline fill="#ddd" fill-opacity=".089" stroke="#000" stroke-opacity=".02" points="0 30.946 17.867 0 53.6 0 71.467 30.946 53.6 61.892 17.867 61.892 0 30.946" transform="translate(-35.733333333333, -30.945974428564)"/><polyline fill="#ddd" fill-opacity=".089" stroke="#000" stroke-opacity=".02" points="0 30.946 17.867 0 53.6 0 71.467 30.946 53.6 61.892 17.867 61.892 0 30.946" transform="translate(285.86666666667, -30.945974428564)"/><polyline fill="#ddd" fill-opacity=".089" stroke="#000" stroke-opacity=".02" points="0 30.946 17.867 0 53.6 0 71.467 30.946 53.6 61.892 17.867 61.892 0 30.946" transform="translate(-35.733333333333, 340.4057187142)"/><polyline fill="#ddd" fill-opacity=".089" stroke="#000" stroke-opacity=".02" points="0 30.946 17.867 0 53.6 0 71.467 30.946 53.6 61.892 17.867 61.892 0 30.946" transform="translate(285.86666666667, 340.4057187142)"/><polyline fill="#ddd" fill-opacity=".02" stroke="#000" stroke-opacity=".02" points="0 30.946 17.867 0 53.6 0 71.467 30.946 53.6 61.892 17.867 61.892 0 30.946" transform="translate(17.866666666667, 0)"/><polyline fill="#ddd" fill-opacity=".02" stroke="#000" stroke-opacity=".02" points="0 30.946 17.867 0 53.6 0 71.467 30.946 53.6 61.892 17.867 61.892 0 30.946" transform="translate(17.866666666667, 371.35169314277)"/><polyline fill="#222" fill-opacity=".029" stroke="#000" stroke-opacity=".02" points="0 30.946 17.867 0 53.6 0 71.467 30.946 53.6 61.892 17.867 61.892 0 30.946" transform="translate(71.466666666667, -30.945974428564)"/><polyline fill="#222" fill-opacity=".029" stroke="#000" stroke-opacity=".02" points="0 30.946 17.867 0 53.6 0 71.467 30.946 53.6 61.892 17.867 61.892 0 30.946" transform="translate(71.466666666667, 340.4057187142)"/><polyline fill="#222" fill-opacity=".046" stroke="#000" stroke-opacity=".02" points="0 30.946 17.867 0 53.6 0 71.467 30.946 53.6 61.892 17.867 61.892 0 30.946" transform="translate(125.06666666667, 0)"/><polyline fill="#222" fill-opacity=".046" stroke="#000" stroke-opacity=".02" points="0 30.946 17.867 0 53.6 0 71.467 30.946 53.6 61.892 17.867 61.892 0 30.946" transform="translate(125.06666666667, 371.35169314277)"/><polyline fill="#ddd" fill-opacity=".141" stroke="#000" stroke-opacity=".02" points="0 30.946 17.867 0 53.6 0 71.467 30.946 53.6 61.892 17.867 61.892 0 30.946" transform="translate(178.66666666667, -30.945974428564)"/><polyline fill="#ddd" fill-opacity=".141" stroke="#000" stroke-opacity=".02" points="0 30.946 17.867 0 53.6 0 71.467 30.946 53.6 61.892 17.867 61.892 0 30.946" transform="translate(178.66666666667, 340.4057187142)"/><polyline fill="#222" fill-opacity=".081" stroke="#000" stroke-opacity=".02" points="0 30.946 17.867 0 53.6 0 71.467 30.946 53.6 61.892 17.867 61.892 0 30.946" transform="translate(232.26666666667, 0)"/><polyline fill="#222" fill-opacity=".081" stroke="#000" stroke-opacity=".02" points="0 30.946 17.867 0 53.6 0 71.467 30.946 53.6 61.892 17.867 61.892 0 30.946" transform="translate(232.26666666667, 371.35169314277)"/><polyline fill="#ddd" fill-opacity=".072" stroke="#000" stroke-opacity=".02" points="0 30.946 17.867 0 53.6 0 71.467 30.946 53.6 61.892 17.867 61.892 0 30.946" transform="translate(-35.733333333333, 30.945974428564)"/><polyline fill="#ddd" fill-opacity=".072" stroke="#000" stroke-opacity=".02" points="0 30.946 17.867 0 53.6 0 71.467 30.946 53.6 61.892 17.867 61.892 0 30.946" transform="translate(285.86666666667, 30.945974428564)"/><polyline fill="#222" fill-opacity=".098" stroke="#000" stroke-opacity=".02" points="0 30.946 17.867 0 53.6 0 71.467 30.946 53.6 61.892 17.867 61.892 0 30.946" transform="translate(17.866666666667, 61.891948857128)"/><polyline fill="#222" fill-opacity=".063" stroke="#000" stroke-opacity=".02" points="0 30.946 17.867 0 53.6 0 71.467 30.946 53.6 61.892 17.867 61.892 0 30.946" transform="translate(71.466666666667, 30.945974428564)"/><polyline fill="#222" fill-opacity=".029" stroke="#000" stroke-opacity=".02" points="0 30.946 17.867 0 53.6 0 71.467 30.946 53.6 61.892 17.867 61.892 0 30.946" transform="translate(125.06666666667, 61.891948857128)"/><polyline fill="#ddd" fill-opacity=".124" stroke="#000" stroke-opacity=".02" points="0 30.946 17.867 0 53.6 0 71.467 30.946 53.6 61.892 17.867 61.892 0 30.946" transform="translate(178.66666666667, 30.945974428564)"/><polyline fill="#ddd" fill-opacity=".141" stroke="#000" stroke-opacity=".02" points="0 30.946 17.867 0 53.6 0 71.467 30.946 53.6 61.892 17.867 61.892 0 30.946" transform="translate(232.26666666667, 61.891948857128)"/><polyline fill="#ddd" fill-opacity=".02" stroke="#000" stroke-opacity=".02" points="0 30.946 17.867 0 53.6 0 71.467 30.946 53.6 61.892 17.867 61.892 0 30.946" transform="translate(-35.733333333333, 92.837923285692)"/><polyline fill="#ddd" fill-opacity=".02" stroke="#000" stroke-opacity=".02" points="0 30.946 17.867 0 53.6 0 71.467 30.946 53.6 61.892 17.867 61.892 0 30.946" transform="translate(285.86666666667, 92.837923285692)"/><polyline fill="#ddd" fill-opacity=".072" stroke="#000" stroke-opacity=".02" points="0 30.946 17.867 0 53.6 0 71.467 30.946 53.6 61.892 17.867 61.892 0 30.946" transform="translate(17.866666666667, 123.78389771426)"/><polyline fill="#222" fill-opacity=".133" stroke="#000" stroke-opacity=".02" points="0 30.946 17.867 0 53.6 0 71.467 30.946 53.6 61.892 17.867 61.892 0 30.946" transform="translate(71.466666666667, 92.837923285692)"/><polyline fill="#ddd" fill-opacity=".055" stroke="#000" stroke-opacity=".02" points="0 30.946 17.867 0 53.6 0 71.467 30.946 53.6 61.892 17.867 61.892 0 30.946" transform="translate(125.06666666667, 123.78389771426)"/><polyline fill="#222" fill-opacity=".063" stroke="#000" stroke-opacity=".02" points="0 30.946 17.867 0 53.6 0 71.467 30.946 53.6 61.892 17.867 61.892 0 30.946" transform="translate(178.66666666667, 92.837923285692)"/><polyline fill="#ddd" fill-opacity=".141" stroke="#000" stroke-opacity=".02" points="0 30.946 17.867 0 53.6 0 71.467 30.946 53.6 61.892 17.867 61.892 0 30.946" transform="translate(232.26666666667, 123.78389771426)"/><polyline fill="#ddd" fill-opacity=".037" stroke="#000" stroke-opacity=".02" points="0 30.946 17.867 0 53.6 0 71.467 30.946 53.6 61.892 17.867 61.892 0 30.946" transform="translate(-35.733333333333, 154.72987214282)"/><polyline fill="#ddd" fill-opacity=".037" stroke="#000" stroke-opacity=".02" points="0 30.946 17.867 0 53.6 0 71.467 30.946 53.6 61.892 17.867 61.892 0 30.946" transform="translate(285.86666666667, 154.72987214282)"/><polyline fill="#222" fill-opacity=".063" stroke="#000" stroke-opacity=".02" points="0 30.946 17.867 0 53.6 0 71.467 30.946 53.6 61.892 17.867 61.892 0 30.946" transform="translate(17.866666666667, 185.67584657138)"/><polyline fill="#222" fill-opacity=".063" stroke="#000" stroke-opacity=".02" points="0 30.946 17.867 0 53.6 0 71.467 30.946 53.6 61.892 17.867 61.892 0 30.946" transform="translate(71.466666666667, 154.72987214282)"/><polyline fill="#222" fill-opacity=".046" stroke="#000" stroke-opacity=".02" points="0 30.946 17.867 0 53.6 0 71.467 30.946 53.6 61.892 17.867 61.892 0 30.946" transform="translate(125.06666666667, 185.67584657138)"/><polyline fill="#ddd" fill-opacity=".055" stroke="#000" stroke-opacity=".02" points="0 30.946 17.867 0 53.6 0 71.467 30.946 53.6 61.892 17.867 61.892 0 30.946" transform="translate(178.66666666667, 154.72987214282)"/><polyline fill="#ddd" fill-opacity=".107" stroke="#000" stroke-opacity=".02" points="0 30.946 17.867 0 53.6 0 71.467 30.946 53.6 61.892 17.867 61.892 0 30.946" transform="translate(232.26666666667, 185.67584657138)"/><polyline fill="#ddd" fill-opacity=".141" stroke="#000" stroke-opacity=".02" points="0 30.946 17.867 0 53.6 0 71.467 30.946 53.6 61.892 17.867 61.892 0 30.946" transform="translate(-35.733333333333, 216.62182099995)"/><polyline fill="#ddd" fill-opacity=".141" stroke="#000" stroke-opacity=".02" points="0 30.946 17.867 0 53.6 0 71.467 30.946 53.6 61.892 17.867 61.892 0 30.946" transform="translate(285.86666666667, 216.62182099995)"/><polyline fill="#ddd" fill-opacity=".072" stroke="#000" stroke-opacity=".02" points="0 30.946 17.867 0 53.6 0 71.467 30.946 53.6 61.892 17.867 61.892 0 30.946" transform="translate(17.866666666667, 247.56779542851)"/><polyline fill="#ddd" fill-opacity=".02" stroke="#000" stroke-opacity=".02" points="0 30.946 17.867 0 53.6 0 71.467 30.946 53.6 61.892 17.867 61.892 0 30.946" transform="translate(71.466666666667, 216.62182099995)"/><polyline fill="#ddd" fill-opacity=".072" stroke="#000" stroke-opacity=".02" points="0 30.946 17.867 0 53.6 0 71.467 30.946 53.6 61.892 17.867 61.892 0 30.946" transform="translate(125.06666666667, 247.56779542851)"/><polyline fill="#222" fill-opacity=".115" stroke="#000" stroke-opacity=".02" points="0 30.946 17.867 0 53.6 0 71.467 30.946 53.6 61.892 17.867 61.892 0 30.946" transform="translate(178.66666666667, 216.62182099995)"/><polyline fill="#222" fill-opacity=".081" stroke="#000" stroke-opacity=".02" points="0 30.946 17.867 0 53.6 0 71.467 30.946 53.6 61.892 17.867 61.892 0 30.946" transform="translate(232.26666666667, 247.56779542851)"/><polyline fill="#222" fill-opacity=".133" stroke="#000" stroke-opacity=".02" points="0 30.946 17.867 0 53.6 0 71.467 30.946 53.6 61.892 17.867 61.892 0 30.946" transform="translate(-35.733333333333, 278.51376985708)"/><polyline fill="#222" fill-opacity=".133" stroke="#000" stroke-opacity=".02" points="0 30.946 17.867 0 53.6 0 71.467 30.946 53.6 61.892 17.867 61.892 0 30.946" transform="translate(285.86666666667, 278.51376985708)"/><polyline fill="#ddd" fill-opacity=".037" stroke="#000" stroke-opacity=".02" points="0 30.946 17.867 0 53.6 0 71.467 30.946 53.6 61.892 17.867 61.892 0 30.946" transform="translate(17.866666666667, 309.45974428564)"/><polyline fill="#ddd" fill-opacity=".072" stroke="#000" stroke-opacity=".02" points="0 30.946 17.867 0 53.6 0 71.467 30.946 53.6 61.892 17.867 61.892 0 30.946" transform="translate(71.466666666667, 278.51376985708)"/><polyline fill="#ddd" fill-opacity=".141" stroke="#000" stroke-opacity=".02" points="0 30.946 17.867 0 53.6 0 71.467 30.946 53.6 61.892 17.867 61.892 0 30.946" transform="translate(125.06666666667, 309.45974428564)"/><polyline fill="#222" fill-opacity=".029" stroke="#000" stroke-opacity=".02" points="0 30.946 17.867 0 53.6 0 71.467 30.946 53.6 61.892 17.867 61.892 0 30.946" transform="translate(178.66666666667, 278.51376985708)"/><polyline fill="#222" fill-opacity=".133" stroke="#000" stroke-opacity=".02" points="0 30.946 17.867 0 53.6 0 71.467 30.946 53.6 61.892 17.867 61.892 0 30.946" transform="translate(232.26666666667, 309.45974428564)"/></svg>