<svg xmlns="http://www.w3.org/2000/svg" xmlns:svg="http://www.w3.org/2000/svg" id="svg866" width="70" height="70" version="1.1" viewBox="0 0 18.521 18.521"><metadata id="metadata863"/><g id="layer1" transform="translate(-52.160713,-117.93012)"><rect id="rect916" width="18.521" height="18.521" x="52.161" y="117.93" ry="2.893" style="fill:#000;fill-opacity:1;stroke:none;stroke-width:6;stroke-linecap:round;stroke-linejoin:round;stroke-miterlimit:4;stroke-dasharray:none;image-rendering:auto"/><g id="g974" transform="translate(0.07045106)"><path id="path868" d="m 65.327982,124.92206 h 1.523995 l 2.434159,2.40241 -2.434159,2.4024 h -1.523995 l 2.444742,-2.40241 z" style="font-style:normal;font-variant:normal;font-weight:500;font-stretch:normal;font-size:10.5833px;line-height:1.25;font-family:Poppins;-inkscape-font-specification:'Poppins Medium';display:inline;fill:#aef;fill-opacity:1;stroke:none;stroke-width:.264583"/><path style="font-style:normal;font-variant:normal;font-weight:400;font-stretch:normal;font-size:7.05556px;line-height:1.25;font-family:'Krona One';-inkscape-font-specification:'Krona One';letter-spacing:-.66675px;word-spacing:0;white-space:pre;display:inline;fill:#aef;fill-opacity:1;stroke:none;stroke-width:1" id="path899-5" d="m 54.277095,124.63213 h 1.092096 l 1.956815,1.9637 1.956816,-1.9637 h 1.092095 v 5.38467 h -1.092095 v -3.87229 l -1.956816,1.88447 -1.956815,-1.88447 v 3.87229 h -1.092096 z"/><path style="font-style:normal;font-variant:normal;font-weight:400;font-stretch:normal;font-size:10.5833px;line-height:1.25;font-family:'Krona One';-inkscape-font-specification:'Krona One';letter-spacing:0;word-spacing:0;white-space:pre;display:inline;fill:#aef;fill-opacity:1;stroke:none;stroke-width:.172164" id="path918" d="m 60.291884,127.28915 c 0,-0.37437 0.07061,-0.72295 0.211842,-1.04576 0.141228,-0.32505 0.345223,-0.60638 0.611986,-0.844 0.269005,-0.23987 0.596294,-0.42817 0.981868,-0.56491 0.387816,-0.13675 0.82607,-0.20512 1.314761,-0.20512 0.428167,0 0.820466,0.0437 1.176897,0.13114 -0.195028,0.92134 0,0 -0.195028,0.92134 -0.134503,-0.0336 -0.274609,-0.0594 -0.42032,-0.0773 -0.143468,-0.0179 -0.285818,-0.0269 -0.427045,-0.0269 -0.34074,0 -0.644492,0.0426 -0.911255,0.12777 -0.266763,0.083 -0.492055,0.20064 -0.675874,0.35307 -0.181579,0.1502 -0.320565,0.33066 -0.416958,0.54138 -0.09415,0.20847 -0.141228,0.43825 -0.141228,0.68932 0,0.26004 0.04932,0.49878 0.147952,0.71623 0.09863,0.21744 0.240984,0.40575 0.427047,0.56491 0.188303,0.15692 0.416957,0.28021 0.685961,0.36988 0.271247,0.0874 0.577241,0.13114 0.917981,0.13114 0.154678,0 0.308234,-0.0112 0.46067,-0.0336 0.152435,-0.0224 0.299268,-0.0527 0.440496,-0.0908 0.279093,0.91798 0,0 0.279093,0.91798 -0.376608,0.1031 -0.776752,0.15465 -1.200435,0.15465 -0.540251,0 -1.014373,-0.0695 -1.422363,-0.20846 -0.407992,-0.14122 -0.748731,-0.33401 -1.02222,-0.57836 -0.273488,-0.24658 -0.479725,-0.53576 -0.618712,-0.86754 -0.136743,-0.33401 -0.205116,-0.69269 -0.205116,-1.07602 z"/></g></g></svg>