<svg xmlns="http://www.w3.org/2000/svg" xmlns:svg="http://www.w3.org/2000/svg" xmlns:xlink="http://www.w3.org/1999/xlink" id="svg982" width="106" height="106" version="1.1"><g id="logo" transform="translate(53, 53)"><g id="gear" mask="url(#holes)"><circle id="circle892" r="43" fill="none" stroke="#000" stroke-width="9"/><g id="cogs"><polygon id="cog" stroke="#000" stroke-linejoin="round" stroke-width="3" points="46 3 51 0 46 -3"/><use id="use895" transform="rotate(11.25)" xlink:href="#cog"/><use id="use897" transform="rotate(22.50)" xlink:href="#cog"/><use id="use899" transform="rotate(33.75)" xlink:href="#cog"/><use id="use901" transform="rotate(45.00)" xlink:href="#cog"/><use id="use903" transform="rotate(56.25)" xlink:href="#cog"/><use id="use905" transform="rotate(67.50)" xlink:href="#cog"/><use id="use907" transform="rotate(78.75)" xlink:href="#cog"/><use id="use909" transform="rotate(90.00)" xlink:href="#cog"/><use id="use911" transform="rotate(101.25)" xlink:href="#cog"/><use id="use913" transform="rotate(112.50)" xlink:href="#cog"/><use id="use915" transform="rotate(123.75)" xlink:href="#cog"/><use id="use917" transform="rotate(135.00)" xlink:href="#cog"/><use id="use919" transform="rotate(146.25)" xlink:href="#cog"/><use id="use921" transform="rotate(157.50)" xlink:href="#cog"/><use id="use923" transform="rotate(168.75)" xlink:href="#cog"/><use id="use925" transform="rotate(180.00)" xlink:href="#cog"/><use id="use927" transform="rotate(191.25)" xlink:href="#cog"/><use id="use929" transform="rotate(202.50)" xlink:href="#cog"/><use id="use931" transform="rotate(213.75)" xlink:href="#cog"/><use id="use933" transform="rotate(225.00)" xlink:href="#cog"/><use id="use935" transform="rotate(236.25)" xlink:href="#cog"/><use id="use937" transform="rotate(247.50)" xlink:href="#cog"/><use id="use939" transform="rotate(258.75)" xlink:href="#cog"/><use id="use941" transform="rotate(270.00)" xlink:href="#cog"/><use id="use943" transform="rotate(281.25)" xlink:href="#cog"/><use id="use945" transform="rotate(292.50)" xlink:href="#cog"/><use id="use947" transform="rotate(303.75)" xlink:href="#cog"/><use id="use949" transform="rotate(315.00)" xlink:href="#cog"/><use id="use951" transform="rotate(326.25)" xlink:href="#cog"/><use id="use953" transform="rotate(337.50)" xlink:href="#cog"/><use id="use955" transform="rotate(348.75)" xlink:href="#cog"/></g><g id="mounts"><polygon id="mount" stroke="#000" stroke-linejoin="round" stroke-width="6" points="-7 -42 0 -35 7 -42"/><use id="use959" transform="rotate(72)" xlink:href="#mount"/><use id="use961" transform="rotate(144)" xlink:href="#mount"/><use id="use963" transform="rotate(216)" xlink:href="#mount"/><use id="use965" transform="rotate(288)" xlink:href="#mount"/></g></g><mask id="holes"><rect id="rect969" width="120" height="120" x="-60" y="-60" fill="#fff"/><circle id="hole" cy="-40" r="3"/><use id="use972" transform="rotate(72)" xlink:href="#hole"/><use id="use974" transform="rotate(144)" xlink:href="#hole"/><use id="use976" transform="rotate(216)" xlink:href="#hole"/><use id="use978" transform="rotate(288)" xlink:href="#hole"/></mask></g><path style="font-weight:700;font-size:48.5862px;line-height:1.25;font-family:Montserrat;-inkscape-font-specification:'Montserrat Bold';letter-spacing:0;word-spacing:0;stroke-width:1.01221" id="path560" d="M 58.562487,35.787151 H 52.178489 L 39.794491,57.180263 27.218493,35.787151 H 20.786494 V 70.21285 h 7.295999 V 50.000046 l 9.839999,16.573514 h 3.503999 l 9.887998,-17.016131 0.048,20.65542 h 7.295999 z"/><path style="font-weight:700;font-size:47.7857px;line-height:1.25;font-family:Montserrat;-inkscape-font-specification:'Montserrat Bold';letter-spacing:0;word-spacing:0;stroke-width:.995535" id="path557" d="m 72.540722,70.221187 c 5.856002,0 10.704005,-2.093183 13.872006,-5.946543 L 81.420726,59.7077 c -2.256001,2.616479 -5.088002,3.948504 -8.448004,3.948504 -6.288002,0 -10.752004,-4.376655 -10.752004,-10.656204 0,-6.279548 4.464002,-10.656204 10.752004,-10.656204 3.360002,0 6.192003,1.332026 8.448004,3.900932 l 4.992002,-4.566945 c -3.168001,-3.805787 -8.016004,-5.89897 -13.824006,-5.89897 -10.464005,0 -18.240007,7.183423 -18.240007,17.221187 0,10.037764 7.776002,17.221187 18.192007,17.221187 z"/></svg>