<svg xmlns="http://www.w3.org/2000/svg" version="1.1" viewBox="0 0 141.7 113.4"><defs><style>.cls-1{fill:#1d1d1b}.cls-2{fill:#e50752}.cls-3{fill:#fff}.cls-4{fill:#e50c53}.cls-5{display:none}</style></defs><g><g id="Marix_logo__x28_visuell_zum_Community_Kasten_angepasst_x29_"><g><g id="matrix"><path d="M16.8,19.8v2.8h0c.8-1.1,1.7-1.9,2.7-2.5,1.1-.6,2.3-.9,3.6-.9s2.5.3,3.6.8c1.1.5,1.9,1.4,2.5,2.7.6-.9,1.5-1.7,2.5-2.4,1.1-.7,2.3-1,3.8-1s2.1.1,3.1.4c.9.3,1.7.7,2.4,1.3.7.6,1.2,1.4,1.6,2.3.4,1,.6,2.1.6,3.4v13.9h-5.7v-11.8c0-.7,0-1.4,0-2,0-.6-.2-1.2-.4-1.6-.2-.5-.6-.8-1.1-1.1-.5-.3-1.1-.4-1.9-.4s-1.5.2-2,.5c-.5.3-.9.7-1.2,1.2-.3.5-.5,1.1-.6,1.7,0,.6-.1,1.3-.1,1.9v11.6h-5.7v-11.7c0-.6,0-1.2,0-1.8,0-.6-.1-1.2-.3-1.7-.2-.5-.5-.9-1-1.2-.5-.3-1.2-.5-2.1-.5s-.6,0-1.1.2c-.4.1-.9.3-1.3.7-.4.3-.8.8-1.1,1.4-.3.6-.4,1.5-.4,2.5v12.1h-5.7v-20.8h5.4Z" class="cls-1"/><path d="M47.4,26.2c0-1.3.4-2.5,1-3.3.6-.9,1.3-1.6,2.3-2.1.9-.5,1.9-.9,3.1-1.1,1.1-.2,2.3-.3,3.4-.3s2.1,0,3.2.2c1.1.1,2.1.4,2.9.9.9.4,1.6,1,2.2,1.8.6.8.8,1.8.8,3v10.8c0,.9,0,1.8.2,2.7.1.9.3,1.5.6,1.9h-5.8c-.1-.3-.2-.6-.3-1,0-.3-.1-.7-.1-1-.9.9-2,1.6-3.2,2-1.2.4-2.5.6-3.8.6s-1.9-.1-2.8-.4c-.9-.2-1.6-.6-2.3-1.1-.6-.5-1.1-1.2-1.5-1.9-.4-.8-.5-1.7-.5-2.8s.2-2.2.6-2.9c.4-.8,1-1.4,1.6-1.8.7-.5,1.4-.8,2.3-1,.8-.2,1.7-.4,2.6-.5.9-.1,1.7-.2,2.5-.3.8,0,1.6-.2,2.2-.4.6-.2,1.2-.4,1.5-.7.4-.3.5-.8.5-1.3,0-.6-.1-1.1-.3-1.5-.2-.4-.5-.6-.8-.8-.3-.2-.7-.3-1.2-.4-.4,0-.9,0-1.4,0-1.1,0-2,.2-2.7.7-.6.5-1,1.3-1.1,2.4h-5.7ZM60.6,30.4c-.2.2-.5.4-.9.5-.4.1-.8.2-1.2.3-.4,0-.9.1-1.3.2-.5,0-.9.1-1.4.2-.4,0-.9.2-1.3.3-.4.1-.8.3-1.1.5-.3.2-.6.5-.7.9-.2.3-.3.8-.3,1.3s0,.9.3,1.3c.2.3.4.6.8.8.3.2.7.3,1.1.4.4,0,.9.1,1.3.1,1.1,0,2-.2,2.6-.6.6-.4,1.1-.8,1.4-1.3.3-.5.5-1.1.5-1.6,0-.5.1-1,.1-1.3v-2.1Z" class="cls-1"/><path d="M82.2,19.8v3.8h-4.2v10.3c0,1,.2,1.6.5,1.9.3.3,1,.5,1.9.5s.6,0,.9,0c.3,0,.6,0,.8-.1v4.4c-.5,0-1,.1-1.6.2-.6,0-1.2,0-1.7,0-.9,0-1.7,0-2.5-.2-.8-.1-1.5-.4-2.1-.7-.6-.3-1.1-.8-1.4-1.5-.3-.6-.5-1.5-.5-2.5v-12.3h-3.5v-3.8h3.5v-6.2h5.7v6.2h4.2Z" class="cls-1"/><path d="M90.3,19.8v3.9h0c.3-.6.6-1.2,1.1-1.8.5-.5,1-1,1.6-1.4.6-.4,1.2-.7,1.9-.9.7-.2,1.4-.3,2.1-.3s.8,0,1.2.2v5.3c-.3,0-.6-.1-1-.1-.4,0-.7,0-1.1,0-1,0-1.9.2-2.7.5-.7.3-1.3.8-1.7,1.4-.4.6-.8,1.3-.9,2.1-.2.8-.3,1.7-.3,2.6v9.4h-5.7v-20.8h5.4Z" class="cls-1"/><path d="M100.7,16.6v-4.7h5.7v4.7h-5.7ZM106.4,19.8v20.8h-5.7v-20.8h5.7Z" class="cls-1"/><path d="M109.4,19.8h6.5l3.7,5.4,3.6-5.4h6.3l-6.8,9.7,7.7,11.1h-6.5l-4.3-6.6-4.3,6.6h-6.4l7.5-10.9-6.8-9.9Z" class="cls-1"/></g><polygon points="6.1 60.2 0 60.2 0 0 6.1 0 6.1 1.7 1.7 1.7 1.7 58.5 6.1 58.5 6.1 60.2 6.1 60.2" class="cls-1"/><polygon points="141.7 60.2 135.6 60.2 135.6 58.5 140 58.5 140 1.7 135.6 1.7 135.6 0 141.7 0 141.7 60.2 141.7 60.2" class="cls-1"/></g></g><g id="Balken_ausgestanzt" class="cls-5"><path d="M130.3,46.3v22.1H11.4v-22.1h118.9ZM28.1,55.6h2.4c0-.7-.3-1.3-.5-1.8-.3-.5-.7-.9-1.1-1.3-.4-.3-.9-.6-1.5-.8-.6-.2-1.2-.3-1.8-.3s-1.7.2-2.4.5c-.7.3-1.3.7-1.8,1.3-.5.5-.9,1.2-1.1,1.9s-.4,1.5-.4,2.4.1,1.6.4,2.3.6,1.4,1.1,1.9c.5.5,1.1,1,1.8,1.3.7.3,1.5.5,2.4.5s1.4-.1,1.9-.3c.6-.2,1.1-.5,1.5-.9.4-.4.8-.9,1.1-1.5.3-.6.4-1.2.5-1.9h-2.4c0,.8-.4,1.4-.8,1.9-.4.5-1,.7-1.8.7s-1-.1-1.4-.3c-.4-.2-.7-.5-1-.9s-.4-.8-.5-1.2c-.1-.5-.2-.9-.2-1.4s0-1,.2-1.5c.1-.5.3-.9.5-1.3s.6-.7,1-.9c.4-.2.9-.3,1.4-.3s.6,0,.9.2c.3.1.5.2.8.4.2.2.4.4.6.6.1.2.2.5.3.8ZM31.9,57.5c0,.8.1,1.6.4,2.3s.6,1.4,1.1,1.9c.5.5,1.1,1,1.8,1.3.7.3,1.5.5,2.4.5s1.7-.2,2.4-.5c.7-.3,1.3-.7,1.8-1.3.5-.5.9-1.2,1.1-1.9.3-.7.4-1.5.4-2.3s-.1-1.6-.4-2.4c-.3-.7-.6-1.4-1.1-1.9-.5-.5-1.1-1-1.8-1.3-.7-.3-1.5-.5-2.4-.5s-1.7.2-2.4.5c-.7.3-1.3.7-1.8,1.3-.5.5-.9,1.2-1.1,1.9s-.4,1.5-.4,2.4ZM34.4,57.5c0-.5,0-1,.2-1.5.1-.5.3-.9.5-1.3s.6-.7,1-.9c.4-.2.9-.3,1.4-.3s1,.1,1.4.3c.4.2.7.5,1,.9.2.4.4.8.5,1.3.1.5.2,1,.2,1.5s0,.9-.2,1.4c-.1.5-.3.9-.5,1.2-.2.4-.6.7-1,.9-.4.2-.9.3-1.4.3s-1-.1-1.4-.3c-.4-.2-.7-.5-1-.9s-.4-.8-.5-1.2c-.1-.5-.2-.9-.2-1.4ZM44.9,51.8v11.5h2.4v-8h0l2.8,8h1.9l2.8-8.1h0v8.1h2.4v-11.5h-3.5l-2.5,7.9h0l-2.7-7.9h-3.5ZM59.5,51.8v11.5h2.4v-8h0l2.8,8h1.9l2.8-8.1h0v8.1h2.4v-11.5h-3.5l-2.5,7.9h0l-2.7-7.9h-3.5ZM83.8,58.9v-7.1h-2.5v7.1c0,.9-.2,1.5-.5,1.9-.3.4-1,.6-1.9.6s-.9,0-1.2-.2c-.3-.1-.5-.3-.7-.6-.2-.2-.3-.5-.3-.8,0-.3,0-.6,0-.9v-7.1h-2.5v7.1c0,1.6.4,2.7,1.3,3.5.9.7,2.1,1.1,3.6,1.1s2.7-.4,3.6-1.1,1.3-1.9,1.3-3.5ZM86.1,51.8v11.5h2.4v-7.7h0l4.8,7.7h2.5v-11.5h-2.4v7.7h0l-4.8-7.7h-2.5ZM98,51.8v11.5h2.5v-11.5h-2.5ZM105.3,53.9v9.3h2.5v-9.3h3.4v-2.1h-9.4v2.1h3.4ZM115.6,58.8v4.5h2.5v-4.4l4.3-7.1h-2.8l-2.7,4.5-2.7-4.5h-2.8l4.2,7Z" class="cls-2"/></g><g id="Balken"><rect width="118.9" height="22.1" x="11.4" y="46.3" class="cls-4"/></g><g id="Schrift"><path d="M28.1,55.6h2.4c0-.7-.3-1.3-.5-1.8-.3-.5-.7-.9-1.1-1.3-.4-.3-.9-.6-1.5-.8-.6-.2-1.2-.3-1.8-.3s-1.7.2-2.4.5c-.7.3-1.3.7-1.8,1.3-.5.5-.9,1.2-1.1,1.9s-.4,1.5-.4,2.4.1,1.6.4,2.3.6,1.4,1.1,1.9c.5.5,1.1,1,1.8,1.3.7.3,1.5.5,2.4.5s1.4-.1,1.9-.3c.6-.2,1.1-.5,1.5-.9.4-.4.8-.9,1.1-1.5.3-.6.4-1.2.5-1.9h-2.4c0,.8-.4,1.4-.8,1.9-.4.5-1,.7-1.8.7s-1-.1-1.4-.3c-.4-.2-.7-.5-1-.9s-.4-.8-.5-1.2c-.1-.5-.2-.9-.2-1.4s0-1,.2-1.5c.1-.5.3-.9.5-1.3s.6-.7,1-.9c.4-.2.9-.3,1.4-.3s.6,0,.9.2c.3.1.5.2.8.4.2.2.4.4.6.6.1.2.2.5.3.8ZM31.9,57.5c0,.8.1,1.6.4,2.3s.6,1.4,1.1,1.9c.5.5,1.1,1,1.8,1.3.7.3,1.5.5,2.4.5s1.7-.2,2.4-.5c.7-.3,1.3-.7,1.8-1.3.5-.5.9-1.2,1.1-1.9.3-.7.4-1.5.4-2.3s-.1-1.6-.4-2.4c-.3-.7-.6-1.4-1.1-1.9-.5-.5-1.1-1-1.8-1.3-.7-.3-1.5-.5-2.4-.5s-1.7.2-2.4.5c-.7.3-1.3.7-1.8,1.3-.5.5-.9,1.2-1.1,1.9s-.4,1.5-.4,2.4ZM34.4,57.5c0-.5,0-1,.2-1.5.1-.5.3-.9.5-1.3s.6-.7,1-.9c.4-.2.9-.3,1.4-.3s1,.1,1.4.3c.4.2.7.5,1,.9.2.4.4.8.5,1.3.1.5.2,1,.2,1.5s0,.9-.2,1.4c-.1.5-.3.9-.5,1.2-.2.4-.6.7-1,.9-.4.2-.9.3-1.4.3s-1-.1-1.4-.3c-.4-.2-.7-.5-1-.9s-.4-.8-.5-1.2c-.1-.5-.2-.9-.2-1.4ZM44.9,51.8v11.5h2.4v-8h0l2.8,8h1.9l2.8-8.1h0v8.1h2.4v-11.5h-3.5l-2.5,7.9h0l-2.7-7.9h-3.5ZM59.5,51.8v11.5h2.4v-8h0l2.8,8h1.9l2.8-8.1h0v8.1h2.4v-11.5h-3.5l-2.5,7.9h0l-2.7-7.9h-3.5ZM83.8,58.9v-7.1h-2.5v7.1c0,.9-.2,1.5-.5,1.9-.3.4-1,.6-1.9.6s-.9,0-1.2-.2c-.3-.1-.5-.3-.7-.6-.2-.2-.3-.5-.3-.8,0-.3,0-.6,0-.9v-7.1h-2.5v7.1c0,1.6.4,2.7,1.3,3.5.9.7,2.1,1.1,3.6,1.1s2.7-.4,3.6-1.1,1.3-1.9,1.3-3.5ZM86.1,51.8v11.5h2.4v-7.7h0l4.8,7.7h2.5v-11.5h-2.4v7.7h0l-4.8-7.7h-2.5ZM98,51.8v11.5h2.5v-11.5h-2.5ZM105.3,53.9v9.3h2.5v-9.3h3.4v-2.1h-9.4v2.1h3.4ZM115.6,58.8v4.5h2.5v-4.4l4.3-7.1h-2.8l-2.7,4.5-2.7-4.5h-2.8l4.2,7Z" class="cls-3"/></g><g id="Events"><g><path d="M115,79.1c.3,0,.6,0,.9,0,.7-.1,1.5,0,2.2,0,.3,0,.5,0,.6-.3-.2-.3,0-.5.2-.6.4-.4.9-.8,1.4-1.1.5-.3,1.2-.5,1.8-.7.6-.2,1.3-.4,2-.4.9,0,1.9.2,2.5.9.3.3.4.8.2,1.1-.3.4-.5.6-1.1.6-.8,0-1.7,0-2.5.2-.5.2-1.1.4-1.6.6,0,0-.1,0-.2.1.1,0,.2,0,.3.1.8.2,1.7.4,2.5.4,1.1,0,2.1.1,3.2.2.8,0,1.7.2,2.5.4.6.2,1.2.5,1.7.8.8.4,1.4,1,1.8,1.7.5.8.8,1.7.8,2.7,0,.5,0,1.1,0,1.6,0,.6-.1,1.3-.4,1.9-.1.3-.2.7-.3,1-.2.4-.3.8-.6,1.1-.5.6-1,1.2-1.7,1.7-.4.3-.9.5-1.3.8-.3.1-.6.2-.8.2-.2,0-.5.1-.7.2-.2,0-.4,0-.6,0-.5,0-1,0-1.5,0-.7,0-1.4-.1-2.1-.3-.5-.1-.9-.4-1.4-.6-.4-.2-.7-.3-1.1-.6-.5-.3-1-.6-1.3-1.2-.1-.2-.3-.3-.4-.5-.1-.2-.1-.4-.2-.5,0-.1,0-.3-.1-.4,0-.3,0-.8.3-.9.4-.3.9-.2,1.4-.1.4,0,.7.2,1,.4.6.3,1.2.6,1.7.9.8.4,1.6.6,2.5.6.8,0,1.6,0,2.3-.3,1-.3,1.6-1,2-1.9.2-.5.4-1,.5-1.6,0-.4,0-.8,0-1.1,0-.5-.2-.9-.3-1.4-.1-.7-.6-1-1.2-1.4-.3-.2-.7-.4-1.1-.5-.5-.2-1.1-.3-1.6-.4-.6-.1-1.2-.2-1.8-.2-.8,0-1.5,0-2.3-.2-.8-.1-1.6-.4-2.4-.5-.6-.1-1.1-.5-1.5-.9-.2-.1-.3-.3-.4-.5,0-.1-.2-.2-.3-.1-.8.4-1.7.8-2.6,1-.4.1-.4.1-.3.6,0,.5,0,1,.1,1.5.1,1.1.3,2.2.4,3.4,0,.2,0,.5,0,.7,0,.4-.1.7-.5.9-.1,0-.3.1-.4.2,0,0,0,0-.1,0,0,0-.2.1-.3,0-.5-.1-.9-.5-1-1-.2-.5-.2-1-.3-1.6-.1-.7-.2-1.3-.3-2,0-.6-.1-1.1-.2-1.7,0-.1,0-.2,0-.4-.5,0-.8.1-1.1.4-.2.2-.5.5-.9.4-.3,0-.8-.5-.8-.8,0-.1,0-.2,0-.3,0-.5.3-.8.6-1.1.5-.5,1.1-.7,1.7-.9.1,0,.2,0,.2-.2,0-.5-.2-1-.3-1.5,0-.4-.2-.8-.3-1.2-.2-1.1-.5-2.1-.7-3.2,0-.1,0-.3,0-.4-.1-.8-.2-1.5-.4-2.3-.1-.9-.3-1.8-.4-2.7,0-.6,0-1.3.2-1.9.2-.5.6-.8,1.1-1,.4-.1,1.1.3,1.2.9,0,.6.1,1.2.3,1.8.1.7.3,1.5.5,2.2,0,.3,0,.5.1.8,0,.3,0,.6,0,.8.1.8.2,1.6.4,2.4,0,.3.2.6.2.9.1.7.2,1.5.4,2.2,0,.5.2,1.1.3,1.6Z"/><path d="M45.7,92.5c-.3-.4-.6-.7-.8-1.1-.3-.4-.5-.9-.7-1.4-.3-.6-.4-1.3-.3-2,0-.6.1-1.2.2-1.7,0-.5.2-1,.4-1.4.2-.6.5-1.2.8-1.7.3-.5.7-1,1.1-1.5.5-.6,1.1-1.2,1.6-1.7.8-.8,1.7-1.4,2.7-2.1.6-.4,1.2-.8,1.9-1.2.5-.3,1.1-.7,1.6-1,.5-.3,1.1-.5,1.7-.8.5-.3,1.1-.5,1.6-.8,1.2-.6,2.5-1,3.8-1.3,1-.3,2.1-.5,3.2-.7.8-.2,1.7-.3,2.5-.5.3,0,.5-.1.8-.1.1,0,.2,0,.3,0,0,.1,0,.3-.2.3-.3.2-.7.4-1.1.6-1,.4-2.1.9-3.1,1.3-.6.2-1.2.4-1.8.7-.6.3-1.3.6-1.9.9-1.2.6-2.3,1.1-3.5,1.7-.4.2-.8.5-1.3.8-.5.3-1.1.6-1.6,1-.9.6-1.7,1.2-2.5,1.8-.5.4-.9.8-1.4,1.2-.8.6-1.4,1.4-2,2.3-.4.6-.7,1.2-.9,1.8-.1.3-.2.7-.2,1,0,.5,0,1,0,1.5,0,.7.3,1.3.7,1.9.3.4.6.7,1,1,0,0,.2,0,.3,0,.9-.4,1.9-.8,2.8-1.3,1-.5,1.9-1,2.9-1.5.8-.4,1.7-.8,2.6-1.2.9-.4,1.8-.8,2.7-1.2.8-.4,1.6-.8,2.4-1.1.9-.4,1.8-.7,2.6-1.1.5-.2.9-.4,1.4-.5.7-.2,1.3-.4,2-.7.8-.2,1.5-.5,2.3-.7.7-.2,1.4-.3,2.1-.5.7-.2,1.4-.4,2.1-.6.4-.1.8-.3,1.3-.4,0,0,0,0,0,0-.2,0-.4.2-.6.2-.2,0-.4.1-.5.2-1.1.5-2.1.9-3.2,1.4-.4.2-.8.5-1.2.7-.8.4-1.6.9-2.4,1.2-.4.2-.7.4-1.1.5-.7.3-1.4.6-2,.9-.3.1-.7.3-1,.4-.8.3-1.6.6-2.4,1-.9.4-1.8.8-2.7,1.3-.6.3-1.2.5-1.8.8-1.4.6-2.7,1.3-4,2-.8.4-1.5.7-2.3,1.1.2.1.3.2.5.3.8.3,1.5.6,2.3.8.3.1.7.2,1,.3.6.1,1.2.3,1.9.4,1.2.1,2.3.2,3.5.3.7,0,1.4,0,2.2,0,.5,0,.9,0,1.4-.1.6,0,1.2-.2,1.8-.3.5,0,.9-.2,1.4-.4.8-.2,1.7-.5,2.5-.8.7-.2,1.3-.4,2-.6.3,0,.5-.2.8-.3.1,0,.3,0,.4,0,0,.3-.2.5-.5.7-.6.3-1.1.8-1.7,1.1-.6.3-1.2.6-1.7.9-.4.2-.9.4-1.3.6-.4.2-.8.3-1.2.4-.2,0-.4.2-.6.2-.7.2-1.3.3-2,.5-.6.1-1.2.2-1.8.3-.7,0-1.4,0-2.1,0-.4,0-.8,0-1.2,0-.7.1-1.5,0-2.2,0-1-.1-2-.3-3-.6-.6-.2-1.3-.3-1.9-.6-.7-.3-1.4-.7-2.2-1-.4-.2-.8-.4-1.2-.6,0,0-.3,0-.4,0-.9.3-1.8.7-2.7,1-.4.1-.6,0-.8-.3,0-.2,0-.5.3-.7.7-.4,1.3-.8,2-1.1,0,0,.1,0,.2-.1Z"/><path d="M132.7,101.4s0,0,0,0c0,.1,0,.3,0,.4,0,.2-.2.3-.3.5,0,0-.1,0-.2,0,0,.2-.3.4-.5.3-.2,0-.4,0-.7,0-.2,0-.3-.1-.5-.2-.6-.4-1.2-.7-1.8-1.1-.6-.3-1.2-.6-1.8-.9-.7-.3-1.4-.5-2.1-.7-.7-.2-1.4-.3-2.2-.5-.7-.1-1.3-.2-2-.3-.7-.1-1.4-.2-2.1-.3-.5,0-1.1,0-1.6-.1-.8,0-1.6-.1-2.4-.1-.5,0-1.1,0-1.6,0-1,0-2.1,0-3.1,0-.6,0-1.2,0-1.8,0-1.3,0-2.5.2-3.8.3-.7,0-1.3.2-2,.2-.6,0-1.2.3-1.9.3-.4,0-.8,0-1.3.2-.2,0-.3,0-.5.1-.3,0-.7,0-1,.2-.4,0-.7.2-1.1.3-.3,0-.6,0-.8.1-.3,0-.6.1-.8.1-.4,0-.7.2-1,.3-.2.1-.5.2-.8.2-.6.1-1.2.1-1.7.4-.4.2-.8.3-1.3.4-.1,0-.3,0-.5,0-.3,0-.7.2-1,.3-.4.1-.8.2-1.2.2-.3,0-.6.1-.8.2-.3,0-.5.1-.8.2-.3,0-.5.2-.8.3-.4.1-.9.3-1.3.4-.2,0-.3.1-.5.2,0,0,0,0-.1,0-.4,0-.9.2-1.3.3,0,0-.1.1-.2.1-.3.1-.6.2-.8.3-.2,0-.4.1-.7.2-.3,0-.6.2-.9.3,0,0,0,0-.1,0-.4-.2-.6,0-.9.3,0,0,0,0,0,0,0,0,0,0,0,0-.2,0-.4-.1-.6-.2,0,0-.1,0-.3,0,0,0,0,0,0,.2,0,0,0,0,0,0,0,.1-.1.2-.2.3,0,0,0,0,0,.1-.3.1-.7.3-1,.4-.2,0-.5.2-.7.3-.2,0-.3.2-.5,0,0,0,0,0,0,0-.3.2-.7.2-1,.5-.3.3-.7.4-1.1.6-.6.3-1.3.5-1.9.7-.6.2-1.3.4-1.9.6-.7.3-1.4.6-2.1.9-.2,0-.3.1-.5.2,0,.1,0,.2.1.3.2.2.2.5,0,.7-.2.3-.4.4-.7.4-.8,0-1.5-.2-2.3-.2-.3,0-.6.1-1,.2-1,.2-1.9.7-3,.7-.4,0-.7,0-1.1-.1-.5-.2-.6-1-.3-1.4.3-.4.8-.5,1.2-.6.4-.1.8-.1,1.1-.2,1-.3,2-.6,3.1-.9,1.2-.4,2.3-.8,3.5-1.1,1-.3,1.9-.6,2.9-.9.3,0,.7-.2,1-.2.1,0,.2-.1.3-.1.4-.1.7-.2,1.1-.4.4-.1.7-.3,1-.4.6-.2,1.2-.4,1.9-.6.4-.1.9-.3,1.3-.4.2,0,.4,0,.6-.1,0,0,.2,0,.3,0,.3,0,.3-.2.4-.4,0,0,.1-.2.2-.2.4-.1.7-.2,1.1-.4.4-.1.7-.3,1-.5.2,0,.4-.1.6-.2.2,0,.4-.2.6-.2.4,0,.6-.4,1-.5.4-.1.7-.2,1.1-.4.6-.2,1.2-.4,1.9-.6.3,0,.6-.2.9-.3.3,0,.5-.1.8-.2.2,0,.3-.1.5-.2.4-.1.8-.3,1.2-.3.3,0,.5-.2.8-.2.2,0,.5-.2.7-.3.4-.1.8-.2,1.2-.4.3,0,.6-.2,1-.3.3,0,.6-.2.9-.2.5-.1.9-.3,1.4-.4.9-.2,1.8-.4,2.7-.7.7-.2,1.4-.3,2-.5.8-.2,1.5-.3,2.3-.4.4,0,.7-.1,1.1-.2.4,0,.8-.1,1.2-.2.5,0,.9-.1,1.4-.2.5,0,1,0,1.5-.1.6,0,1.1-.1,1.7-.1,1.1,0,2.3,0,3.4-.1.7,0,1.5,0,2.2,0,.9,0,1.8,0,2.8,0,1.3,0,2.6,0,3.8.4.6.1,1.2.1,1.8.2.8.1,1.6.3,2.4.4.5,0,.9.2,1.4.3,1,.3,2,.5,2.9.9.7.3,1.3.6,1.9,1,.5.3,1.1.7,1.5,1.1.3.2.4.6.6.9,0,0,0,.2-.1.3Z"/><path d="M74.4,90.3c.2-.3,0-.6-.1-.9-.4-.8-.8-1.6-1.1-2.4-.3-.6-.6-1.1-.8-1.7,0-.2,0-.5,0-.7,0,0,0,0,.1.2,0-.1,0-.3,0-.4,0,0,.2-.1.3-.2.3-.2.5,0,.7,0,.5.2.8.7,1.1,1.2.4.8.8,1.5,1.2,2.3.5.9,1,1.8,1.5,2.7.4.8.8,1.5,1.3,2.2.4.6.8,1.2,1.3,1.8,0,0,0,0,.1,0,0-.2.2-.3.2-.5.1-.6.2-1.3.3-1.9.1-1.1.3-2.2.4-3.3.1-1.2.3-2.4.4-3.6,0-.7.1-1.5.2-2.2.1-.7.3-1.5.5-2.2.1-.5.3-.9.5-1.4.1-.3.3-.5.5-.7,0-.2.2-.3.3-.4.3-.3.7-.4,1.1-.5.1,0,.3,0,.4.1.4.2.6.6.5,1-.1.9-.5,1.6-.8,2.4-.3.8-.5,1.6-.6,2.4-.1.7-.1,1.4-.2,2.1,0,.5-.1,1-.2,1.5-.1.8-.2,1.5-.3,2.3,0,.6-.2,1.2-.3,1.8,0,.6-.2,1.2-.3,1.8-.2,1-.5,2-1.2,2.8-.4.4-.8.7-1.5.8-.8,0-1.3-.3-1.8-.9-.7-.9-1.3-1.9-1.9-2.9-.5-.8-1-1.7-1.5-2.6,0-.1-.1-.2-.2-.3,0-.2-.2-.2-.4,0h0Z"/><path d="M94.7,89.4c-.1.2-.2.4-.4.5-.4.7-1,1.4-1.6,2-1.1,1.1-2.9,1.2-4.1.3-1-.8-1.6-1.8-2-3-.3-1.1-.3-2.3-.2-3.5,0-.5,0-1,0-1.5.1-.7.2-1.4.5-2,.2-.6.5-1.2.8-1.7.5-.7,1-1.4,1.7-1.9.4-.3.8-.5,1.3-.7.6-.3,1.1-.2,1.6,0,.5.2,1,.6,1.2,1.1.2.5.3.9.2,1.4-.1,1.1-.4,2.2-.9,3.2-.6,1.3-1.2,2.5-1.9,3.8-.4.7-1,1.3-1.6,1.9-.1.1-.2.3-.4.4-.2.2-.2.3,0,.6.3.5.6,1.1,1.1,1.3.8.4,1.6.3,2.3-.3.5-.4,1-.9,1.5-1.3.2-.2.4-.5.6-.8,0,0,0,0,0,0ZM88.5,88.3s0,0,0,0c.3-.4.6-.8.8-1.2.5-1,1-2.1,1.5-3.1.4-.8.6-1.6.7-2.4,0-.4,0-.8,0-1.2,0-.2,0-.3-.3-.2-.3.2-.6.4-.8.6-.3.3-.6.7-.9,1.1-.5.7-.8,1.4-.9,2.2-.1.8-.2,1.7-.2,2.6,0,.5,0,1.1,0,1.6Z"/><path d="M103.9,87.7c-.1.1-.2.2-.3.3-.5.6-1.1,1.1-1.8,1.5-.6.3-1.2.3-1.9.2-.4,0-.9-.3-1.2-.6-.3-.3-.6-.6-.8-.9-.3-.4-.6-.8-.8-1.2-.3-.6-.6-1.1-.8-1.7-.2-.4-.2-.9-.4-1.3-.2-.6-.2-1.1,0-1.6.1-.3.4-.5.6-.7.1,0,.4,0,.5,0,.2.2.3.4.5.6.2.5.5.9.7,1.4.2.5.4,1,.6,1.4.4.8.8,1.5,1.4,2.1.3.3.6.3.9.1.5-.2.9-.7,1.2-1.1.4-.5.6-1.2.8-1.8.2-.5.4-.8,1-.9,0,0,.2-.1.3,0,.5,0,1,.1,1.3.5.4.4.6.9.7,1.4.2.8.4,1.6.6,2.4.1.5.4.9.6,1.4.4.7.8,1.3,1.1,2,.1.2.3.3.5.2.1,0,.3,0,.4,0,0,.1-.1.3-.2.3-.8.5-1.6.7-2.5.2-.8-.4-1.4-1-1.9-1.8-.3-.5-.5-1-.7-1.6-.1-.3-.2-.7-.4-1Z"/><path d="M71.7,91.8c.3-.3.7-.5,1.1-.6,0,0,.2,0,.3-.2.2-.2.4-.3.7-.3,0,0-.1.2-.2.2-.2.1-.4.2-.5.3-.2.1-.4.3-.6.5-.1,0-.2.1-.3.2,0,0,0,0,0,0,0,0,0,.1,0,.3-.2-.1-.3-.2-.4-.3Z"/><path d="M74.4,90.3c-.1.2-.3.3-.5.2,0,0,0,0,0,0,.2,0,.3,0,.5-.1,0,0,0,0,0,0Z"/><path d="M95.6,87.3l.2-.7s0,0,0,0c0,.2-.2.5-.2.7,0,0,0,0,0,0Z"/></g></g></g><metadata/></svg>