<svg xmlns="http://www.w3.org/2000/svg" version="1.1" viewBox="0 0 141.7 141.7"><defs><style>.cls-1{fill:#fff}.cls-2{fill:#e30613}</style></defs><g><g id="Ebene_1"><rect width="141.7" height="141.7" class="cls-2"/><path d="M62.9,83.3c1.1,0,2.1.1,3.1.4,8.5,2.5,10.4,19,10.7,23,1.6-1,3.5-1.6,5.4-1.7-2-3.3-9.4-16.4-3.5-24.5,5.9-8.1,21.9-4.3,25.8-3.3-.4-1.9-.3-3.8.2-5.7-3.9.8-19.1,3.3-23.9-5.8-4.9-9.2,4-24.2,6.3-27.7-1.9-.2-3.6-.9-5.2-1.9-.2,1.7-.9,5.8-2.4,10.1-2.6,7.7-6.7,12.8-11.6,14.9-5,2.1-10.8.5-16.6-4.7-3.3-2.9-5.8-6.3-6.8-7.7-.3.6-.7,1.2-1.2,1.8-.6.7-1.2,1.3-2,1.8,3.3,1.7,16,9,16.2,19,.1,4.7-2.8,9.3-8.4,13.2-3.2,2.2-6.4,3.6-7.8,4.1,1,1,1.8,2.3,2.3,3.6,2.4-2,11.7-9.1,19.6-9.1Z" class="cls-1"/><path d="M82.7,33.3c3.8,3.1,9.3,2.6,12.4-1.2,3.1-3.8,2.6-9.3-1.2-12.4-3.8-3.1-9.3-2.6-12.4,1.2-3.1,3.8-2.6,9.3,1.2,12.4h0Z" class="cls-1"/><path d="M115.7,66c-.3,0-.6,0-.9,0-2.4.2-4.5,1.4-6,3.2-1.5,1.8-2.2,4.1-2,6.5.2,2.4,1.4,4.5,3.2,6h0c1.8,1.5,4.1,2.2,6.5,2,2.4-.2,4.5-1.4,6-3.2,1.5-1.8,2.2-4.1,2-6.5-.2-2.4-1.3-4.5-3.2-6-1.6-1.3-3.6-2-5.6-2Z" class="cls-1"/><path d="M82.7,107.8c-2.5,0-5.1,1.1-6.8,3.2-3.1,3.8-2.6,9.3,1.2,12.4,3.8,3.1,9.3,2.6,12.4-1.2,1.5-1.8,2.2-4.1,2-6.5-.2-2.4-1.3-4.5-3.2-6h0c-1.6-1.4-3.6-2-5.6-2Z" class="cls-1"/><path d="M34.3,88.4c-.2,0-.5,0-.7,0-1.9.2-3.6,1.1-4.8,2.5s-1.8,3.3-1.6,5.2,1.1,3.6,2.5,4.8c3,2.5,7.5,2.1,9.9-1,1.2-1.5,1.8-3.3,1.6-5.2s-1.1-3.6-2.5-4.8c-1.3-1.1-2.8-1.6-4.5-1.6Z" class="cls-1"/><path d="M34.9,36c-2.3,0-4.5,1-6.1,2.9-2.8,3.4-2.3,8.4,1.1,11.1,3.4,2.8,8.3,2.3,11.1-1.1,2.8-3.4,2.3-8.4-1.1-11.1h0c-1.5-1.2-3.3-1.8-5-1.8Z" class="cls-1"/></g></g><metadata/></svg>