<svg xmlns="http://www.w3.org/2000/svg" xmlns:xlink="http://www.w3.org/1999/xlink" id="Layer_1" width="64" height="64" x="0" y="0" enable-background="new 0 0 64 64" version="1.1" viewBox="0 0 64 64" xml:space="preserve"><g><rect width="9" height="2" x="36" y="8"/><rect width="26" height="2" x="19" y="16"/><rect width="26" height="2" x="19" y="24"/><path d="M54,0H10v21.142L0,25.335V64h64V25.335l-10-4.193V0z M52,2v29.716L32,44.253L12,31.716V2H52z M10,30.462l-6.835-4.285 L10,23.311V30.462z M2,62V27.807l30,18.807l30-18.807V62H2z M60.835,26.177L54,30.462v-7.151L60.835,26.177z"/></g></svg>