<svg xmlns="http://www.w3.org/2000/svg" xmlns:xlink="http://www.w3.org/1999/xlink" id="Layer_1" width="64" height="64" x="0" y="0" enable-background="new 0 0 64 64" version="1.1" viewBox="0 0 64 64" xml:space="preserve"><g><path d="M0,64h64V0H0V64z M2,2h60v60H2V2z"/><polygon points="19 8 17 8 17 17 8 17 8 19 17 19 17 28 19 28 19 19 28 19 28 17 19 17"/><rect width="20" height="2" x="36" y="17"/><polygon points="25.293 37.293 18 44.586 10.707 37.293 9.293 38.707 16.586 46 9.293 53.293 10.707 54.707 18 47.414 25.293 54.707 26.707 53.293 19.414 46 26.707 38.707"/><rect width="20" height="2" x="36" y="42"/><rect width="20" height="2" x="36" y="48"/></g></svg>