<svg xmlns="http://www.w3.org/2000/svg" width="382" height="147" fill="none" viewBox="0 0 382 147"><rect width="241" height="73" x="91.5" y="72.622" fill="#000" rx="20.5"/><path stroke="#fff" stroke-linecap="round" stroke-width="4" d="M116 93.1218L308 93.1218"/><path stroke="#fff" stroke-linecap="round" stroke-width="4" d="M116 109.122L308 109.122"/><path stroke="#fff" stroke-linecap="round" stroke-width="4" d="M116 125.122L245 125.122"/><rect width="241" height="73" x="91.5" y="72.622" stroke="#000" rx="20.5"/><rect width="241" height="73" x="91.5" y="72.622" stroke="#fff" rx="20.5"/><g clip-path="url(#clip0_1054_16202)"><g clip-path="url(#clip1_1054_16202)"><rect width="42" height="42" x="340" y="103.122" fill="#000" rx="21"/><circle cx="361" cy="117.122" r="7" fill="#fff"/><circle cx="361" cy="139.872" r="14" fill="#fff"/><circle cx="361" cy="124.122" r="19.25" stroke="#000" stroke-width="3.5"/></g></g><g clip-path="url(#clip2_1054_16202)"><rect width="42" height="42" y="15.122" fill="#131212" rx="21"/><g clip-path="url(#clip3_1054_16202)"><rect width="42" height="42" y="15.122" fill="#fff" rx="21"/><circle cx="21" cy="29.122" r="7" fill="#000"/><circle cx="21" cy="51.872" r="14" fill="#000"/><circle cx="21" cy="36.122" r="19.25" stroke="#000" stroke-width="3.5"/></g></g><rect width="213" height="57" x="49.5" y=".622" fill="#fff" rx="20.5"/><path stroke="#000" stroke-linecap="round" stroke-width="4" d="M74 21.1218L238 21.1218"/><path stroke="#000" stroke-linecap="round" stroke-width="4" d="M74 37.1218L194 37.1218"/><rect width="213" height="57" x="49.5" y=".622" stroke="#000" rx="20.5"/><defs><clipPath id="clip0_1054_16202"><rect width="42" height="42" x="340" y="103.122" fill="#fff" rx="21"/></clipPath><clipPath id="clip1_1054_16202"><rect width="42" height="42" x="340" y="103.122" fill="#fff" rx="21"/></clipPath><clipPath id="clip2_1054_16202"><rect width="42" height="42" y="15.122" fill="#fff" rx="21"/></clipPath><clipPath id="clip3_1054_16202"><rect width="42" height="42" y="15.122" fill="#fff" rx="21"/></clipPath></defs></svg>