<svg xmlns="http://www.w3.org/2000/svg" width="280" height="173" fill="none" viewBox="0 0 280 173"><rect width="280" height="171.818" y=".213" fill="#000" rx="6.131"/><rect width="59.613" height="160.316" x="5.42" y="5.964" fill="#fff" rx="6.131"/><rect width="28.903" height="3.595" x="11.153" y="16.063" fill="#000" rx="1.797"/><rect width="8.75" height="8.75" x="11.243" y="30.725" fill="#000" rx="3.182"/><rect width="28.862" height="3.608" x="22.879" y="33.296" fill="#000" rx="1.804"/><rect width="8.75" height="8.75" x="11.243" y="46.634" fill="#000" rx="3.182"/><rect width="28.862" height="3.608" x="22.879" y="49.205" fill="#000" rx="1.804"/><rect width="8.75" height="8.75" x="11.243" y="62.543" fill="#000" rx="3.182"/><rect width="28.862" height="3.608" x="22.879" y="65.114" fill="#000" rx="1.804"/><rect width="8.75" height="8.75" x="11.243" y="78.452" fill="#000" rx="3.182"/><rect width="28.862" height="3.608" x="22.879" y="81.023" fill="#000" rx="1.804"/><rect width="8.75" height="8.75" x="11.243" y="94.361" fill="#000" rx="3.182"/><rect width="28.862" height="3.608" x="22.879" y="96.932" fill="#000" rx="1.804"/><rect width="71.535" height="3.595" x="73.703" y="11.715" fill="#DBDBDB" rx="1.797"/><ellipse cx="81.281" cy="31.509" fill="#fff" rx="6.494" ry="6.494"/><rect width="28.862" height="3.608" x="90.661" y="27.54" fill="#DBDBDB" rx="1.804"/><rect width="95.245" height="3.608" x="90.661" y="35.838" fill="#DBDBDB" rx="1.804"/><ellipse cx="81.281" cy="54.599" fill="#fff" rx="6.494" ry="6.494"/><rect width="28.862" height="3.608" x="90.661" y="50.63" fill="#DBDBDB" rx="1.804"/><rect width="95.245" height="3.608" x="90.661" y="58.928" fill="#DBDBDB" rx="1.804"/><rect width="126.272" height="3.608" x="90.661" y="67.226" fill="#DBDBDB" rx="1.804"/><ellipse cx="81.281" cy="85.987" fill="#fff" rx="6.494" ry="6.494"/><rect width="28.862" height="3.608" x="90.661" y="82.018" fill="#DBDBDB" rx="1.804"/><rect width="50.509" height="3.608" x="90.661" y="90.316" fill="#DBDBDB" rx="1.804"/><rect width="67.826" height="3.608" x="90.661" y="98.614" fill="#DBDBDB" rx="1.804"/><rect width="67.826" height="3.608" x="90.661" y="106.912" fill="#DBDBDB" rx="1.804"/><ellipse cx="81.281" cy="125.672" fill="#fff" rx="6.494" ry="6.494"/><rect width="28.862" height="3.608" x="90.661" y="121.704" fill="#DBDBDB" rx="1.804"/><rect width="50.509" height="3.608" x="90.661" y="130.002" fill="#DBDBDB" rx="1.804"/><rect width="67.826" height="3.608" x="90.661" y="138.3" fill="#DBDBDB" rx="1.804"/><rect width="195.819" height="16.535" x="73.703" y="149.745" fill="#fff" rx="6.131"/></svg>